<svg xmlns="http://www.w3.org/2000/svg" width="1080" height="1081" viewBox="0 0 1080 1081" version="1.1">
	<path d="M 803.632 72.250 C 805.211 83.960, 811.979 96.146, 822.980 107.090 C 830.386 114.456, 842.899 123, 846.282 123 C 847.199 123, 848.620 121.702, 849.441 120.115 C 851.261 116.595, 859.232 109.433, 864 107.033 C 880.537 98.710, 903.931 103.629, 913.913 117.529 L 917.112 121.983 921.306 119.868 C 926.929 117.032, 937.983 107.947, 942.465 102.478 C 947.036 96.899, 953.159 86.649, 954.834 81.772 C 956.244 77.664, 957.953 68, 957.269 68 C 957.031 68, 954.961 69.527, 952.668 71.394 C 936.441 84.606, 910.568 90.705, 874.829 89.741 C 849.899 89.069, 832.996 85.532, 817.500 77.744 C 813.409 75.688, 805.766 70.119, 805.167 68.757 C 804.983 68.341, 804.434 68, 803.946 68 C 803.458 68, 803.317 69.912, 803.632 72.250 M 949.014 78.414 C 949.662 79.062, 950.338 79.062, 950.986 78.414 C 951.633 77.767, 951.295 77.429, 950 77.429 C 948.705 77.429, 948.367 77.767, 949.014 78.414 M 462.500 159.084 C 385.727 163.751, 300.474 189.378, 251 222.658 C 239.617 230.316, 237.511 231.883, 238.073 232.283 C 238.308 232.450, 242.100 233.606, 246.500 234.853 C 255.924 237.523, 282.199 248.869, 281.517 249.973 C 281.257 250.393, 278.848 251.028, 276.163 251.384 C 273.479 251.740, 267.506 253.310, 262.891 254.872 C 239.056 262.942, 222.128 276.384, 212.912 294.560 C 210.564 299.189, 208.836 303.159, 209.072 303.381 C 209.307 303.603, 214 303.380, 219.500 302.885 C 225 302.389, 231.392 302.325, 233.704 302.742 L 237.909 303.500 233.047 309.749 C 225.596 319.324, 221.018 328.402, 219.416 336.775 C 217.791 345.270, 217.588 351.628, 218.917 352.449 C 219.421 352.760, 222.684 352.344, 226.167 351.523 C 235.562 349.308, 248.700 349.542, 255.386 352.043 C 266.708 356.280, 271.359 364.353, 273.475 383.445 C 275.062 397.766, 277.529 404.462, 283.371 410.304 L 287.002 413.935 284.052 425.218 C 275.185 459.123, 276.287 496.704, 287.055 527.612 C 297.428 557.387, 315.752 584.860, 339 605.490 C 363.766 627.468, 396.485 644.789, 431.408 654.410 L 439.316 656.589 434.216 659.862 C 427.064 664.451, 416.789 675.679, 413.378 682.633 C 410.737 688.016, 410.500 689.407, 410.500 699.500 C 410.500 710.071, 410.636 710.773, 414 717.500 C 418.896 727.292, 428.328 736.570, 438.495 741.595 C 445.649 745.131, 447.057 745.474, 454.421 745.476 C 460.872 745.478, 463.349 745.027, 466.710 743.239 C 469.026 742.008, 471.091 741, 471.299 741 C 471.673 741, 465.265 771.356, 463.061 780.023 C 462.435 782.486, 460.965 787.516, 459.795 791.202 C 457.909 797.141, 457.774 798.878, 458.608 806.472 C 459.126 811.185, 459.233 818.519, 458.846 822.770 C 457.586 836.604, 457.915 855.662, 459.553 863.792 C 461.448 873.195, 466.550 884.389, 471.375 889.730 C 473.349 891.914, 477.784 895.218, 481.232 897.070 C 487 900.170, 488.218 900.441, 496.500 900.469 C 507.195 900.506, 512.079 898.552, 519.268 891.363 C 529.485 881.146, 534.967 861.799, 534.992 835.872 C 534.999 828.374, 535.262 827.064, 537 825.872 C 540.947 823.163, 542.410 809.319, 540.208 795.500 C 539.594 791.650, 538.959 784.337, 538.796 779.249 L 538.500 769.999 544 770.015 C 547.025 770.024, 550.023 770.363, 550.661 770.770 C 551.300 771.176, 552.346 774.432, 552.986 778.004 C 553.626 781.577, 555.530 791.250, 557.217 799.500 C 559.457 810.453, 560.314 817.483, 560.393 825.557 C 560.478 834.401, 560.852 837.103, 562.261 839.057 C 563.229 840.401, 565.119 843.142, 566.460 845.150 C 567.801 847.157, 569.362 848.957, 569.928 849.150 C 570.493 849.342, 572.556 853.979, 574.511 859.453 C 584.385 887.104, 598.561 908.722, 613.607 919.073 C 625.245 927.081, 641.982 929.658, 652.607 925.078 C 662.402 920.856, 669.088 911.035, 671.136 897.863 C 673.040 885.619, 668.813 866.051, 659.827 845.500 C 656.465 837.811, 655.823 835.189, 655.421 827.500 C 654.782 815.263, 654.537 814.495, 649.594 809.164 C 645.761 805.029, 644.186 801.607, 635.716 779 C 630.461 764.975, 625.852 752.712, 625.474 751.750 C 624.878 750.234, 625.415 750, 629.499 750 C 643.416 750, 662.689 740.250, 674.796 727.084 C 686.288 714.586, 693.260 696.623, 691.517 684 C 688.733 663.836, 675.128 648.618, 650.760 638.412 C 647.317 636.970, 644.341 635.640, 644.146 635.457 C 643.951 635.274, 647.901 633.061, 652.925 630.538 C 708.805 602.473, 755.446 558.095, 779.485 510.119 C 792.119 484.902, 798.713 463.374, 802.491 435 C 803.260 429.225, 804.811 419.325, 805.938 413 C 808.270 399.909, 808.779 371.724, 806.949 356.974 C 804.435 336.716, 798.950 316.736, 789.870 294.768 C 787.081 288.021, 782.143 276.039, 778.898 268.143 C 770.015 246.532, 763.872 224.016, 762.415 207.722 C 762.032 203.444, 761.388 199.740, 760.984 199.490 C 760.379 199.117, 754.003 202.857, 740.795 211.331 C 739.858 211.932, 738.733 212.066, 738.295 211.628 C 737.858 211.191, 737.532 203.333, 737.572 194.166 C 737.640 178.510, 737.811 177.055, 740.400 170.162 C 741.916 166.126, 742.925 162.591, 742.641 162.308 C 741.614 161.281, 727.678 169.644, 719.682 176.086 C 706.510 186.699, 697.570 198.395, 693.517 210.320 C 692.455 213.444, 691.181 216, 690.687 216 C 690.192 216, 688.148 214.736, 686.144 213.190 C 667.629 198.912, 633.467 182.280, 605 173.685 C 562.247 160.776, 514.737 155.908, 462.500 159.084 M 579 242.644 C 544.308 244.311, 506.354 250.607, 475.500 259.815 C 404.112 281.120, 351.655 316.717, 319.341 365.786 C 311.730 377.343, 306.813 386.147, 307.556 386.890 C 307.890 387.224, 308.689 386.796, 309.332 385.940 C 311.308 383.306, 321.856 375.114, 325.982 373.009 C 338.831 366.454, 354.149 364.334, 365.955 367.475 C 395.532 375.346, 423.479 412.031, 441.396 466.500 C 454.995 507.845, 456.677 550.555, 445.784 578 C 437.767 598.201, 421.949 612.320, 401.540 617.490 C 394.003 619.399, 379.565 619.403, 370.569 617.497 C 366.757 616.689, 363.465 616.202, 363.253 616.413 C 362.200 617.466, 397.019 637, 399.949 637 C 400.492 637, 400.680 636.329, 400.365 635.508 C 399.611 633.545, 402.920 632.252, 404.044 634.071 C 404.532 634.861, 404.430 635.982, 403.800 636.741 C 402.453 638.363, 402.145 638.144, 410.286 641.349 C 414.428 642.979, 417.994 643.789, 419.439 643.426 C 421.056 643.020, 422.099 643.355, 422.730 644.482 C 424.459 647.571, 454.349 654.791, 474.446 656.973 C 483.075 657.910, 484.504 657.850, 485.245 656.526 C 486.309 654.626, 489 654.517, 489 656.375 C 489 658.383, 493.610 659, 508.625 659 C 521.333 659, 522 658.900, 522 657 C 522 655.667, 522.667 655, 524 655 C 525.111 655, 526 655.667, 526 656.500 C 526 657.622, 527.196 658.001, 530.750 658.003 C 537.515 658.007, 559.492 655.108, 571.899 652.575 C 581.724 650.568, 582.461 650.253, 582.480 648.047 C 582.506 644.973, 584.960 644.132, 585.696 646.946 C 586.387 649.588, 587.502 649.408, 604.610 643.891 C 616.214 640.149, 616.700 639.881, 616.243 637.493 C 615.660 634.443, 618.659 633.933, 619.782 636.891 C 620.465 638.688, 620.844 638.634, 627.500 635.782 C 658.388 622.545, 683.296 607.746, 707.181 588.440 C 724.019 574.830, 743.427 554.595, 755.561 538 C 777.594 507.863, 793.411 468.034, 796.465 435 L 797.065 428.500 793.687 437.573 C 784.599 461.980, 770.762 484.403, 756.361 498.058 C 712.501 539.649, 650.209 548.443, 592.884 521.136 C 555.051 503.115, 524.535 468.756, 511.589 429.604 C 506.074 412.923, 504.616 403.076, 504.616 382.500 C 504.616 361.330, 506.217 351.047, 512.121 334.312 C 525.804 295.526, 555.892 266.288, 596.138 252.668 C 604.772 249.746, 622.123 246.008, 627.157 245.985 C 628.996 245.976, 631.109 245.583, 631.854 245.111 C 634.038 243.728, 594.684 241.890, 579 242.644 M 630.500 249.619 C 602.303 253.380, 577.891 262.511, 559.500 276.177 C 504.847 316.787, 491.933 397.725, 530.250 459.500 C 536.733 469.953, 549.461 485.322, 557.578 492.500 C 579.159 511.584, 607.060 525.293, 635 530.541 C 647.982 532.979, 672.350 533.055, 684.182 530.694 C 740.373 519.480, 781.336 477.471, 795.046 417 C 797.831 404.715, 797.295 389.515, 793.475 372.483 C 782.477 323.446, 757.849 290.331, 716 268.310 C 706.619 263.374, 694.001 258.357, 678.500 253.400 C 666.746 249.642, 666.161 249.560, 650 249.391 C 640.925 249.297, 632.150 249.399, 630.500 249.619 M 639.950 275.459 C 582.639 284.852, 542.416 340.711, 551.350 398.500 C 557.105 435.732, 580.077 467.012, 613.500 483.128 C 657.133 504.167, 706.893 495.789, 741.190 461.629 C 773.857 429.093, 782.145 379.247, 762.026 336.314 C 756.913 325.404, 752.233 318.523, 743.739 309.428 C 728.545 293.158, 711.686 283.432, 688.074 277.315 C 675.961 274.177, 653.140 273.297, 639.950 275.459 M 89.677 309.772 C 88.511 311.575, 79.158 318.189, 74.999 320.151 C 58.813 327.788, 29.530 332.912, 8.750 331.743 L 0 331.251 0 339.233 C 0 346.419, 0.174 347.147, 1.748 346.543 C 18.248 340.212, 39.637 346.689, 49.304 360.945 L 50.961 363.390 55.231 361.031 C 70.900 352.375, 84.893 335.496, 89.479 319.719 C 91.153 313.963, 91.286 307.285, 89.677 309.772 M 660.045 349.092 C 630.083 354.966, 617.959 392.640, 638.791 415.141 C 658.147 436.048, 692.033 431.081, 704.561 405.500 C 707.271 399.967, 707.500 398.643, 707.500 388.500 C 707.500 378.659, 707.218 376.898, 704.820 371.782 C 699.576 360.593, 688.266 351.633, 676.201 349.109 C 670.172 347.847, 666.416 347.843, 660.045 349.092 M 348 370.610 C 342.588 371.556, 336.255 373.475, 331.151 375.715 C 309.044 385.417, 293.216 409.397, 286.324 443.626 C 283.558 457.368, 283.847 488.910, 286.869 503 C 292.104 527.409, 304.584 555.879, 317.993 574 C 326.651 585.701, 339.624 599.035, 347.148 603.966 C 357.927 611.031, 377.036 615.708, 391 614.700 C 411.780 613.201, 430.258 600.847, 438.817 582.731 C 443.349 573.140, 448.493 555.128, 444.986 561.133 C 443.281 564.051, 430.661 571.844, 424.170 573.986 C 391.977 584.610, 354.983 563.808, 334.286 523.443 C 328.106 511.392, 323.102 497.278, 319.371 481.383 C 316.820 470.510, 316.583 467.842, 316.589 450 C 316.594 432.975, 316.874 429.496, 318.797 422.593 C 322.494 409.316, 327.478 400.535, 336.500 391.401 C 345.489 382.302, 353.568 377.665, 363.839 375.713 C 367.227 375.069, 370 374.213, 370 373.810 C 370 372.035, 353.543 369.641, 348 370.610 M 396.748 449.367 C 380.145 455.557, 372.105 478.443, 380.267 496.273 C 383.659 503.681, 390.901 511.315, 397.686 514.635 C 401.937 516.714, 404.579 517.291, 409.811 517.281 C 424.408 517.251, 434.756 508.413, 438.645 492.654 C 440.008 487.131, 440.103 484.836, 439.193 479.346 C 437.130 466.898, 429.696 455.969, 419.845 450.903 C 414.383 448.094, 402.314 447.291, 396.748 449.367 M 835.012 497.699 C 835.041 504.477, 840.126 517.248, 845.883 525 C 853.365 535.076, 862.830 543.332, 872.885 548.554 L 878.269 551.350 880.323 548.425 C 895.146 527.307, 925.771 524.376, 942.856 542.441 C 945.510 545.247, 947.893 548.180, 948.153 548.958 C 948.984 551.453, 960.810 543.366, 970.175 533.898 C 977.324 526.669, 979.649 523.488, 983.390 515.813 C 986.389 509.661, 988.151 504.545, 988.581 500.740 L 989.233 494.980 986.083 497.923 C 976.604 506.777, 958.979 513.265, 935.500 516.544 C 921.005 518.569, 894.441 518.066, 880.500 515.504 C 862.826 512.255, 845.929 505.245, 838.250 497.975 L 835 494.899 835.012 497.699 M 760.688 508.646 C 759.272 510.061, 760.073 512, 762.073 512 C 763.471 512, 764.041 511.457, 763.823 510.333 C 763.466 508.492, 761.759 507.574, 760.688 508.646 M 755.500 520 C 754.663 521.354, 755.792 523, 757.559 523 C 758.352 523, 759 522.100, 759 521 C 759 518.930, 756.587 518.240, 755.500 520 M 520.323 521.601 C 519.538 523.647, 522 525.245, 523.729 523.810 C 524.705 523, 524.745 522.397, 523.890 521.367 C 522.385 519.553, 521.076 519.639, 520.323 521.601 M 742.688 521.646 C 741.272 523.061, 742.073 525, 744.073 525 C 745.471 525, 746.041 524.457, 745.823 523.333 C 745.466 521.492, 743.759 520.574, 742.688 521.646 M 548.688 525.646 C 547.272 527.061, 548.073 529, 550.073 529 C 551.471 529, 552.041 528.457, 551.823 527.333 C 551.466 525.492, 549.759 524.574, 548.688 525.646 M 502.500 529 C 501.663 530.354, 502.792 532, 504.559 532 C 505.352 532, 506 531.100, 506 530 C 506 527.930, 503.587 527.240, 502.500 529 M 480.188 534.739 C 480.690 537.345, 484 537.636, 484 535.073 C 484 533.642, 483.358 533, 481.927 533 C 480.496 533, 479.957 533.539, 480.188 534.739 M 529.188 534.739 C 529.690 537.345, 533 537.636, 533 535.073 C 533 533.642, 532.358 533, 530.927 533 C 529.496 533, 528.957 533.539, 529.188 534.739 M 742.190 536.750 C 742.376 537.712, 743.190 538.500, 744 538.500 C 744.810 538.500, 745.624 537.712, 745.810 536.750 C 746.046 535.522, 745.506 535, 744 535 C 742.494 535, 741.954 535.522, 742.190 536.750 M 515.336 541.567 C 514.502 543.739, 516.618 545.782, 518.133 544.267 C 519.413 542.987, 518.620 540, 517 540 C 516.415 540, 515.667 540.705, 515.336 541.567 M 729 543 C 729 544.506, 729.522 545.046, 730.750 544.810 C 731.712 544.624, 732.500 543.810, 732.500 543 C 732.500 542.190, 731.712 541.376, 730.750 541.190 C 729.522 540.954, 729 541.494, 729 543 M 562.500 543 C 561.663 544.354, 562.792 546, 564.559 546 C 565.352 546, 566 545.100, 566 544 C 566 541.930, 563.587 541.240, 562.500 543 M 541.691 550.199 C 540.465 562.901, 535.696 572.782, 528.752 577.004 C 524.507 579.586, 517.614 580.521, 511.721 579.314 C 509.077 578.772, 506.696 578.684, 506.428 579.117 C 505.685 580.318, 515.771 583.003, 520.932 582.978 C 534.445 582.913, 544.481 570.167, 544.370 553.211 C 544.307 543.673, 542.515 541.658, 541.691 550.199 M 710.688 545.646 C 709.272 547.061, 710.073 549, 712.073 549 C 713.471 549, 714.041 548.457, 713.823 547.333 C 713.466 545.492, 711.759 544.574, 710.688 545.646 M 487.329 548.584 C 486.613 550.451, 488.390 552.495, 489.913 551.554 C 491.501 550.573, 491.241 548.306, 489.462 547.624 C 488.571 547.282, 487.674 547.686, 487.329 548.584 M 578 553 C 578 554.506, 578.522 555.046, 579.750 554.810 C 580.712 554.624, 581.500 553.810, 581.500 553 C 581.500 552.190, 580.712 551.376, 579.750 551.190 C 578.522 550.954, 578 551.494, 578 553 M 473.323 553.601 C 472.615 555.445, 475.034 557.366, 476.374 556.026 C 477.466 554.934, 476.464 552, 475 552 C 474.415 552, 473.661 552.720, 473.323 553.601 M 606.688 553.646 C 605.272 555.061, 606.073 557, 608.073 557 C 609.471 557, 610.041 556.457, 609.823 555.333 C 609.466 553.492, 607.759 552.574, 606.688 553.646 M 639.688 554.646 C 638.314 556.020, 639.026 558.142, 640.750 557.810 C 641.712 557.624, 642.500 556.841, 642.500 556.070 C 642.500 554.491, 640.736 553.598, 639.688 554.646 M 676.152 556.317 C 675.234 557.424, 675.317 558.018, 676.530 559.025 C 678.865 560.963, 681.017 558.589, 678.871 556.443 C 677.545 555.116, 677.163 555.099, 676.152 556.317 M 727.329 557.584 C 726.613 559.451, 728.390 561.495, 729.913 560.554 C 731.501 559.573, 731.241 557.306, 729.462 556.624 C 728.571 556.282, 727.674 556.686, 727.329 557.584 M 710.533 557.947 C 709.653 559.370, 710.775 561, 712.632 561 C 713.508 561, 714.010 560.297, 713.823 559.333 C 713.434 557.324, 711.437 556.484, 710.533 557.947 M 690.323 560.601 C 689.538 562.647, 692 564.245, 693.729 562.810 C 694.705 562, 694.745 561.397, 693.890 560.367 C 692.385 558.553, 691.076 558.639, 690.323 560.601 M 570.500 566 C 569.663 567.354, 570.792 569, 572.559 569 C 573.352 569, 574 568.100, 574 567 C 574 564.930, 571.587 564.240, 570.500 566 M 663.688 565.646 C 662.272 567.061, 663.073 569, 665.073 569 C 666.471 569, 667.041 568.457, 666.823 567.333 C 666.466 565.492, 664.759 564.574, 663.688 565.646 M 470.336 569.567 C 469.502 571.739, 471.618 573.782, 473.133 572.267 C 474.413 570.987, 473.620 568, 472 568 C 471.415 568, 470.667 568.705, 470.336 569.567 M 715.500 569 C 714.684 570.320, 715.777 572, 717.452 572 C 718.915 572, 720.219 569.552, 719.264 568.598 C 718.332 567.665, 716.183 567.895, 715.500 569 M 704 570.927 C 704 572.358, 704.642 573, 706.073 573 C 707.504 573, 708.043 572.461, 707.812 571.261 C 707.310 568.655, 704 568.364, 704 570.927 M 591.254 572.146 C 589.916 573.484, 590.729 576, 592.500 576 C 594.346 576, 595.109 573.335, 593.617 572.097 C 592.731 571.362, 592.024 571.376, 591.254 572.146 M 630.190 572.750 C 630.376 573.712, 631.190 574.500, 632 574.500 C 632.810 574.500, 633.624 573.712, 633.810 572.750 C 634.046 571.522, 633.506 571, 632 571 C 630.494 571, 629.954 571.522, 630.190 572.750 M 650.190 572.271 C 648.755 574, 650.353 576.462, 652.399 575.677 C 654.361 574.924, 654.447 573.615, 652.633 572.110 C 651.603 571.255, 651 571.295, 650.190 572.271 M 677.500 574 C 676.663 575.354, 677.792 577, 679.559 577 C 680.352 577, 681 576.100, 681 575 C 681 572.930, 678.587 572.240, 677.500 574 M 610.624 575.538 C 609.877 577.485, 612.718 578.682, 614.309 577.091 C 615.208 576.192, 615.134 575.696, 613.992 574.974 C 611.918 573.663, 611.304 573.766, 610.624 575.538 M 686.659 582.742 C 686.369 583.212, 686.507 584.202, 686.965 584.943 C 687.979 586.584, 691.341 585.524, 690.750 583.749 C 690.250 582.247, 687.399 581.545, 686.659 582.742 M 579.688 583.646 C 578.272 585.061, 579.073 587, 581.073 587 C 582.471 587, 583.041 586.457, 582.823 585.333 C 582.466 583.492, 580.759 582.574, 579.688 583.646 M 699.533 583.947 C 698.653 585.370, 699.775 587, 701.632 587 C 702.508 587, 703.010 586.297, 702.823 585.333 C 702.434 583.324, 700.437 582.484, 699.533 583.947 M 473.500 587 C 472.663 588.354, 473.792 590, 475.559 590 C 476.352 590, 477 589.100, 477 588 C 477 585.930, 474.587 585.240, 473.500 587 M 651.500 587 C 650.663 588.354, 651.792 590, 653.559 590 C 654.352 590, 655 589.100, 655 588 C 655 585.930, 652.587 585.240, 651.500 587 M 614.336 588.567 C 613.502 590.739, 615.618 592.782, 617.133 591.267 C 618.413 589.987, 617.620 587, 616 587 C 615.415 587, 614.667 587.705, 614.336 588.567 M 463 591 C 463 592.506, 463.522 593.046, 464.750 592.810 C 465.712 592.624, 466.500 591.810, 466.500 591 C 466.500 590.190, 465.712 589.376, 464.750 589.190 C 463.522 588.954, 463 589.494, 463 591 M 663.500 596 C 662.663 597.354, 663.792 599, 665.559 599 C 666.352 599, 667 598.100, 667 597 C 667 594.930, 664.587 594.240, 663.500 596 M 591.176 597.224 C 589.620 598.780, 589.692 599.668, 591.427 600.334 C 593.540 601.144, 595.380 598.560, 593.689 597.156 C 592.706 596.341, 592.041 596.359, 591.176 597.224 M 683.500 598 C 682.684 599.320, 683.777 601, 685.452 601 C 686.915 601, 688.219 598.552, 687.264 597.598 C 686.332 596.665, 684.183 596.895, 683.500 598 M 639.500 599 C 638.663 600.354, 639.792 602, 641.559 602 C 642.352 602, 643 601.100, 643 600 C 643 597.930, 640.587 597.240, 639.500 599 M 626.190 601.750 C 626.376 602.712, 627.190 603.500, 628 603.500 C 628.810 603.500, 629.624 602.712, 629.810 601.750 C 630.046 600.522, 629.506 600, 628 600 C 626.494 600, 625.954 600.522, 626.190 601.750 M 579.404 604.390 C 579.036 605.349, 579.244 606.644, 579.867 607.267 C 580.711 608.111, 581.308 608.092, 582.207 607.193 C 583.150 606.250, 583.049 605.620, 581.744 604.315 C 580.183 602.755, 580.029 602.760, 579.404 604.390 M 609.659 603.742 C 609.369 604.212, 609.507 605.202, 609.965 605.943 C 610.979 607.584, 614.341 606.524, 613.750 604.749 C 613.250 603.247, 610.399 602.545, 609.659 603.742 M 527.695 605.353 C 526.996 607.173, 527.792 608, 530.240 608 C 531.513 608, 532.035 607.422, 531.812 606.261 C 531.390 604.070, 528.437 603.418, 527.695 605.353 M 655.336 605.567 C 654.548 607.621, 656.130 609.156, 657.904 608.059 C 659.415 607.125, 658.719 604, 657 604 C 656.415 604, 655.667 604.705, 655.336 605.567 M 669.688 604.646 C 668.272 606.061, 669.073 608, 671.073 608 C 672.471 608, 673.041 607.457, 672.823 606.333 C 672.466 604.492, 670.759 603.574, 669.688 604.646 M 464.190 607.750 C 464.376 608.712, 465.190 609.500, 466 609.500 C 466.810 609.500, 467.624 608.712, 467.810 607.750 C 468.046 606.522, 467.506 606, 466 606 C 464.494 606, 463.954 606.522, 464.190 607.750 M 592.688 609.646 C 591.272 611.061, 592.073 613, 594.073 613 C 595.471 613, 596.041 612.457, 595.823 611.333 C 595.466 609.492, 593.759 608.574, 592.688 609.646 M 564 613 C 564 614.506, 564.522 615.046, 565.750 614.810 C 566.712 614.624, 567.500 613.810, 567.500 613 C 567.500 612.190, 566.712 611.376, 565.750 611.190 C 564.522 610.954, 564 611.494, 564 613 M 649.096 614.941 C 647.585 615.875, 648.281 619, 650 619 C 651.464 619, 652.466 616.066, 651.374 614.974 C 650.873 614.473, 649.877 614.458, 649.096 614.941 M 633.190 616.750 C 633.376 617.712, 634.190 618.500, 635 618.500 C 635.810 618.500, 636.624 617.712, 636.810 616.750 C 637.046 615.522, 636.506 615, 635 615 C 633.494 615, 632.954 615.522, 633.190 616.750 M 437.446 618.087 C 436.573 619.499, 438.501 621.427, 439.913 620.554 C 441.499 619.574, 441.243 617, 439.559 617 C 438.766 617, 437.816 617.489, 437.446 618.087 M 453.190 618.750 C 453.376 619.712, 454.190 620.500, 455 620.500 C 455.810 620.500, 456.624 619.712, 456.810 618.750 C 457.046 617.522, 456.506 617, 455 617 C 453.494 617, 452.954 617.522, 453.190 618.750 M 475.190 618.750 C 475.376 619.712, 476.190 620.500, 477 620.500 C 477.810 620.500, 478.624 619.712, 478.810 618.750 C 479.046 617.522, 478.506 617, 477 617 C 475.494 617, 474.954 617.522, 475.190 618.750 M 518.446 619.087 C 517.505 620.610, 519.549 622.387, 521.416 621.671 C 522.314 621.326, 522.718 620.429, 522.376 619.538 C 521.694 617.759, 519.427 617.499, 518.446 619.087 M 538.659 620.742 C 538.369 621.212, 538.507 622.202, 538.965 622.943 C 539.979 624.584, 543.341 623.524, 542.750 621.749 C 542.250 620.247, 539.399 619.545, 538.659 620.742 M 608.688 621.646 C 607.272 623.061, 608.073 625, 610.073 625 C 611.471 625, 612.041 624.457, 611.823 623.333 C 611.466 621.492, 609.759 620.574, 608.688 621.646 M 636.500 624 C 635.684 625.320, 636.777 627, 638.452 627 C 639.915 627, 641.219 624.552, 640.264 623.598 C 639.332 622.665, 637.183 622.895, 636.500 624 M 583.624 625.538 C 583.282 626.429, 583.686 627.326, 584.584 627.671 C 586.451 628.387, 588.495 626.610, 587.554 625.087 C 586.573 623.499, 584.306 623.759, 583.624 625.538 M 570.190 626.750 C 570.376 627.712, 571.190 628.500, 572 628.500 C 572.810 628.500, 573.624 627.712, 573.810 626.750 C 574.046 625.522, 573.506 625, 572 625 C 570.494 625, 569.954 625.522, 570.190 626.750 M 417 627.927 C 417 629.358, 417.642 630, 419.073 630 C 421.636 630, 421.345 626.690, 418.739 626.188 C 417.539 625.957, 417 626.496, 417 627.927 M 458 628 C 458 629.333, 458.667 630, 460 630 C 461.333 630, 462 629.333, 462 628 C 462 626.667, 461.333 626, 460 626 C 458.667 626, 458 626.667, 458 628 M 529.500 627 C 528.663 628.354, 529.792 630, 531.559 630 C 532.352 630, 533 629.100, 533 628 C 533 625.930, 530.587 625.240, 529.500 627 M 550 628 C 550 629.506, 550.522 630.046, 551.750 629.810 C 552.712 629.624, 553.500 628.810, 553.500 628 C 553.500 627.190, 552.712 626.376, 551.750 626.190 C 550.522 625.954, 550 626.494, 550 628 M 507.500 629 C 506.663 630.354, 507.792 632, 509.559 632 C 510.352 632, 511 631.100, 511 630 C 511 627.930, 508.587 627.240, 507.500 629 M 472 633 C 472 634.506, 472.522 635.046, 473.750 634.810 C 474.712 634.624, 475.500 633.810, 475.500 633 C 475.500 632.190, 474.712 631.376, 473.750 631.190 C 472.522 630.954, 472 631.494, 472 633 M 434.500 633 C 433.684 634.320, 434.777 636, 436.452 636 C 437.915 636, 439.219 633.552, 438.264 632.598 C 437.332 631.665, 435.183 631.895, 434.500 633 M 491.570 632.887 C 490.661 634.357, 493.907 636.493, 495.155 635.245 C 495.744 634.656, 495.923 633.685, 495.554 633.087 C 494.744 631.777, 492.331 631.655, 491.570 632.887 M 599.690 634.643 C 599.311 635.023, 599 636.158, 599 637.167 C 599 639.161, 601.466 639.672, 602.559 637.904 C 603.351 636.623, 600.711 633.622, 599.690 634.643 M 531.336 637.567 C 530.548 639.621, 532.130 641.156, 533.904 640.059 C 535.415 639.125, 534.719 636, 533 636 C 532.415 636, 531.667 636.705, 531.336 637.567 M 559.336 637.567 C 558.502 639.739, 560.618 641.782, 562.133 640.267 C 563.413 638.987, 562.620 636, 561 636 C 560.415 636, 559.667 636.705, 559.336 637.567 M 458.190 639.750 C 458.376 640.712, 459.190 641.500, 460 641.500 C 460.810 641.500, 461.624 640.712, 461.810 639.750 C 462.046 638.522, 461.506 638, 460 638 C 458.494 638, 457.954 638.522, 458.190 639.750 M 572.336 640.567 C 571.502 642.739, 573.618 644.782, 575.133 643.267 C 576.413 641.987, 575.620 639, 574 639 C 573.415 639, 572.667 639.705, 572.336 640.567 M 515 642 C 515 643.506, 515.522 644.046, 516.750 643.810 C 517.712 643.624, 518.500 642.810, 518.500 642 C 518.500 641.190, 517.712 640.376, 516.750 640.190 C 515.522 639.954, 515 640.494, 515 642 M 488.500 643 C 487.684 644.320, 488.777 646, 490.452 646 C 491.915 646, 493.219 643.552, 492.264 642.598 C 491.332 641.665, 489.183 641.895, 488.500 643 M 472 646 C 472 647.506, 472.522 648.046, 473.750 647.810 C 474.712 647.624, 475.500 646.810, 475.500 646 C 475.500 645.190, 474.712 644.376, 473.750 644.190 C 472.522 643.954, 472 644.494, 472 646 M 447.173 647.659 C 447.368 648.672, 448.196 649.500, 449.014 649.500 C 451.157 649.500, 450.848 646.594, 448.659 646.173 C 447.323 645.916, 446.916 646.323, 447.173 647.659 M 503 651 C 503 652.506, 503.522 653.046, 504.750 652.810 C 505.712 652.624, 506.500 651.810, 506.500 651 C 506.500 650.190, 505.712 649.376, 504.750 649.190 C 503.522 648.954, 503 649.494, 503 651 M 548.190 650.750 C 548.376 651.712, 549.190 652.500, 550 652.500 C 550.810 652.500, 551.624 651.712, 551.810 650.750 C 552.046 649.522, 551.506 649, 550 649 C 548.494 649, 547.954 649.522, 548.190 650.750 M 598 657.505 C 598 659.239, 603.432 685.177, 605.066 691.245 L 606.162 695.314 608.628 690.972 C 609.985 688.583, 611.815 684.040, 612.694 680.875 C 614.286 675.151, 614.280 675.093, 611.591 669.596 C 610.092 666.533, 606.845 662.273, 604.303 660.036 C 599.369 655.692, 598 655.143, 598 657.505 M 579.813 658.683 C 580.534 658.972, 581.397 658.936, 581.729 658.604 C 582.061 658.272, 581.471 658.036, 580.417 658.079 C 579.252 658.127, 579.015 658.364, 579.813 658.683 M 552 661.568 C 546.225 662.292, 535.875 663.174, 529 663.526 C 522.125 663.878, 515.917 664.348, 515.204 664.570 C 514.345 664.837, 515.835 667.739, 519.613 673.163 L 525.319 681.353 524.676 721.572 L 524.033 761.790 533.267 762.488 C 538.345 762.871, 545.642 763.564, 549.481 764.028 C 553.321 764.492, 556.574 764.760, 556.709 764.624 C 556.845 764.488, 555.117 744.889, 552.868 721.070 L 548.781 677.762 556.890 669.610 C 561.351 665.127, 565 661.130, 565 660.729 C 565 659.892, 565.719 659.845, 552 661.568 M 451.813 661.683 C 452.534 661.972, 453.397 661.936, 453.729 661.604 C 454.061 661.272, 453.471 661.036, 452.417 661.079 C 451.252 661.127, 451.015 661.364, 451.813 661.683 M 484.333 669.874 C 476.857 675.289, 471.891 685.258, 473.437 691.743 C 474.443 695.963, 479.265 708.068, 479.748 707.585 C 480.226 707.107, 480.515 705.922, 485.570 683.667 C 487.548 674.958, 488.976 667.642, 488.743 667.410 C 488.510 667.177, 486.525 668.286, 484.333 669.874 M 561.500 675 C 561.160 675.550, 561.359 676, 561.941 676 C 562.523 676, 563 675.550, 563 675 C 563 674.450, 562.802 674, 562.559 674 C 562.316 674, 561.840 674.450, 561.500 675 M 420.459 684.067 C 420.096 684.653, 420.014 685.348, 420.276 685.610 C 420.538 685.872, 421.019 685.392, 421.345 684.543 C 422.021 682.781, 421.445 682.471, 420.459 684.067 M 615.266 691.531 C 613.806 694.508, 612.833 697.166, 613.104 697.438 C 613.728 698.061, 671.888 720.010, 672.815 719.972 C 673.958 719.924, 680.179 709.037, 679.768 707.803 C 679.472 706.917, 637.470 692.100, 620.710 686.971 C 618.062 686.160, 617.786 686.391, 615.266 691.531 M 439.250 697.357 L 416 700.475 416 703.088 C 416 704.526, 416.509 707.163, 417.132 708.949 C 418.102 711.731, 418.640 712.124, 420.882 711.690 C 422.322 711.411, 434.075 709.503, 447 707.449 C 459.925 705.396, 470.591 703.650, 470.703 703.571 C 470.815 703.492, 470.143 701.306, 469.211 698.714 C 467.187 693.086, 470.117 693.218, 439.250 697.357 M 604.898 710.250 C 602.113 716.192, 601.500 718.687, 601.500 724.078 C 601.500 729.787, 601.881 731.155, 604.383 734.435 C 612.336 744.863, 631.186 746.638, 648.457 738.586 C 656.433 734.868, 668.550 726.121, 667.316 724.972 C 666.287 724.015, 610.890 702.998, 609.398 702.999 C 608.792 703, 606.767 706.263, 604.898 710.250 M 447.500 713.277 C 433.750 715.449, 422.127 717.571, 421.671 717.992 C 421.215 718.413, 423.631 721.739, 427.039 725.383 C 439.061 738.234, 454.332 742.907, 464.955 736.984 C 473.238 732.365, 477.631 722.389, 475.101 713.942 C 474.465 711.820, 473.620 709.913, 473.222 709.705 C 472.825 709.497, 461.250 711.104, 447.500 713.277 M 586.411 710.371 C 585.299 713.268, 586.432 715.500, 589.014 715.500 C 591.110 715.500, 591.500 715.029, 591.500 712.500 C 591.500 710.148, 591.013 709.431, 589.246 709.180 C 587.923 708.992, 586.751 709.485, 586.411 710.371 M 488.524 710.961 C 488.160 711.550, 487.485 711.800, 487.024 711.515 C 486.563 711.230, 486.418 711.883, 486.701 712.966 C 487.995 717.912, 493.384 718.175, 492.817 713.264 C 492.492 710.450, 489.749 708.979, 488.524 710.961 M 348.667 775.896 C 344.017 780.463, 335.869 784.875, 325.383 788.503 C 310.657 793.599, 300.974 795.096, 279 795.675 C 262.204 796.117, 257.700 795.893, 246.520 794.060 C 234.033 792.013, 218.780 787.564, 212.500 784.137 C 210.850 783.237, 206.912 780.591, 203.750 778.258 L 198 774.017 198.021 777.258 C 198.055 782.513, 202.628 793.972, 207.586 801.229 C 213.674 810.139, 226.080 821.648, 234.274 825.987 C 237.896 827.905, 241.018 829.255, 241.211 828.987 C 251.406 814.885, 261.879 808.956, 276.812 808.835 C 289.495 808.732, 300.581 813.734, 307.740 822.790 L 311.642 827.727 315.571 825.728 C 329.092 818.851, 343.578 802.436, 348.866 788 C 350.463 783.642, 352.505 772.794, 351.679 773.057 C 351.581 773.089, 350.225 774.366, 348.667 775.896 M 465 821.918 C 465 822.973, 464.739 824.518, 464.419 825.351 C 464.031 826.362, 464.891 827.409, 467.009 828.505 C 471.241 830.693, 473 829.849, 473 825.629 C 473 822.677, 472.558 822.042, 469.851 821.098 C 465.562 819.603, 465 819.698, 465 821.918 M 478.630 826.250 C 478.299 827.487, 478.014 830.075, 477.998 832 C 477.950 837.879, 477.061 838.395, 470.966 836.079 C 468.025 834.962, 465.367 834.302, 465.060 834.613 C 464.154 835.528, 464.910 856.979, 466.074 863.405 C 467.375 870.583, 470.349 878.628, 472.945 881.987 L 474.866 884.474 477.197 882.285 C 486 874.015, 503.088 875.218, 510.867 884.655 L 513.732 888.131 517.358 883.895 C 519.352 881.565, 521.853 877.335, 522.916 874.496 C 525.104 868.648, 527 856.522, 527 848.378 L 527 842.900 522.250 843.200 C 518.333 843.447, 517.522 843.209, 517.624 841.840 C 517.692 840.928, 518.065 837.215, 518.453 833.590 L 519.159 827 512.830 826.969 C 509.348 826.952, 501.100 826.286, 494.500 825.490 C 479.047 823.625, 479.337 823.611, 478.630 826.250 M 524.634 830.078 C 523.504 835.730, 523.825 838.281, 525.582 837.607 C 526.452 837.273, 527.601 837, 528.137 837 C 528.673 837, 528.973 834.874, 528.805 832.259 C 528.586 828.848, 528.047 827.432, 526.884 827.212 C 525.766 826.999, 525.074 827.882, 524.634 830.078 M 993 829.741 C 993 833.439, 995.632 842.340, 998.251 847.500 C 1004.348 859.510, 1017.692 872.982, 1030.450 880.007 L 1036.400 883.283 1037.890 880.891 C 1038.710 879.576, 1041.914 875.975, 1045.010 872.889 C 1052.466 865.459, 1059.408 862.677, 1070.746 862.574 L 1078.991 862.500 1078.996 856.250 L 1079 850 1075.250 849.955 C 1039.872 849.535, 1011.091 842.352, 997.250 830.487 L 993 826.844 993 829.741 M 646.750 839.689 C 645.788 839.941, 645 840.624, 645 841.207 C 645 842.241, 647.136 850.179, 647.587 850.824 C 648.040 851.470, 654 847.923, 654 847.008 C 654 846.491, 653.242 844.478, 652.315 842.534 C 650.649 839.040, 650.170 838.795, 646.750 839.689 M 625.134 845.491 C 619.433 846.772, 611.638 848.135, 607.811 848.519 C 603.342 848.968, 600.664 849.711, 600.324 850.597 C 599.867 851.790, 600.958 858.124, 602.705 864.409 C 603.209 866.222, 602.754 866.285, 593.618 865.685 C 587.503 865.284, 584 865.415, 584 866.045 C 584 867.824, 594.170 887.357, 598.145 893.211 C 604.626 902.758, 611.561 910.521, 616.578 913.844 C 619.199 915.580, 621.704 917, 622.146 917 C 622.587 917, 623.593 915.753, 624.381 914.229 C 626.748 909.653, 631.148 905.869, 637.690 902.786 C 646.151 898.797, 653.282 898.146, 659.310 900.813 C 661.869 901.945, 664.184 902.511, 664.456 902.071 C 665.786 899.920, 666.118 889.501, 665.053 883.384 C 663.671 875.449, 657.364 855.343, 655.991 854.494 C 655.478 854.177, 653.699 854.622, 652.036 855.481 C 643.990 859.642, 644.293 859.767, 641.698 851.218 C 639.886 845.246, 638.920 843.462, 637.428 843.331 C 636.368 843.237, 630.835 844.209, 625.134 845.491 M 578 851.453 C 578 855.489, 580.313 857.901, 585.185 858.946 C 587.888 859.526, 591.362 860, 592.905 860 L 595.712 860 594.724 855 L 593.735 850 585.867 850 C 579.654 850, 578 850.305, 578 851.453 M 485.500 883.863 C 483.300 884.864, 480.885 886.426, 480.134 887.334 C 478.917 888.804, 479.355 889.258, 484.134 891.482 C 487.802 893.190, 491.240 893.982, 495 893.985 C 500.761 893.989, 508 892.425, 508 891.176 C 508 889.221, 504.308 885.590, 500.617 883.914 C 495.424 881.555, 490.609 881.539, 485.500 883.863 M 641.441 907.051 C 633.459 910.122, 626.704 917.930, 630.143 920.110 C 632.010 921.292, 643.705 921.210, 648.123 919.983 C 652.142 918.866, 661 911.614, 661 909.441 C 661 907.316, 655.602 904.994, 650.800 905.052 C 648.435 905.081, 644.224 905.980, 641.441 907.051 M 710.320 1040.454 C 711.317 1050.725, 720.715 1067.089, 730.901 1076.291 L 735.006 1080 748.609 1080 C 761.543 1080, 762.353 1079.881, 765.090 1077.578 C 770.363 1073.140, 778.574 1070.701, 788.500 1070.621 C 798.755 1070.539, 805.469 1072.384, 811.919 1077.056 C 815.845 1079.901, 816.363 1080, 827.241 1079.995 L 838.500 1079.990 844.274 1074.343 C 854.606 1064.239, 862.350 1050.171, 863.448 1039.512 L 863.905 1035.075 858.144 1039.550 C 835.831 1056.878, 786.345 1062.785, 746.208 1052.913 C 732.511 1049.544, 718.279 1043.041, 712.964 1037.724 L 709.741 1034.500 710.320 1040.454" stroke="none" fill="black" fill-rule="evenodd"/>
</svg>